<?xml version="1.0" standalone="no"?>
<!DOCTYPE svg PUBLIC "-//W3C//DTD SVG 20010904//EN"
 "http://www.w3.org/TR/2001/REC-SVG-20010904/DTD/svg10.dtd">
<svg version="1.0" xmlns="http://www.w3.org/2000/svg"
 width="180.000000pt" height="180.000000pt" viewBox="0 0 180.000000 180.000000"
 preserveAspectRatio="xMidYMid meet">

<g transform="translate(0.000000,180.000000) scale(0.100000,-0.100000)"
fill="#3F8365" stroke="none">
<path d="M774 1476 c-38 -17 -44 -31 -44 -106 0 -49 -3 -60 -19 -65 -11 -3
-37 -18 -58 -33 -27 -19 -55 -28 -98 -32 -64 -5 -81 -23 -27 -28 17 -2 32 -5
32 -8 0 -2 -14 -23 -31 -47 -17 -23 -37 -57 -44 -74 -14 -33 -15 -33 -83 -33
-101 0 -107 -9 -107 -162 0 -119 0 -120 28 -144 23 -20 39 -24 93 -24 35 0 64
-4 64 -8 0 -5 18 -36 39 -70 l40 -61 -32 -3 c-52 -5 -37 -23 24 -28 32 -3 65
-12 75 -21 11 -9 38 -26 62 -38 41 -21 42 -23 42 -70 0 -42 4 -53 26 -70 24
-18 41 -21 141 -21 108 0 115 1 138 25 19 18 25 35 25 70 0 42 3 47 33 60 17
7 48 25 67 40 l35 26 3 -30 c5 -51 32 -39 32 13 0 34 9 56 40 104 22 33 40 64
40 70 0 5 35 11 81 14 114 5 119 12 119 169 0 152 -5 159 -114 159 -73 0 -74
0 -86 30 -7 17 -26 49 -41 70 -23 31 -29 51 -29 90 0 38 -4 50 -15 50 -10 0
-15 -11 -15 -35 l0 -35 -43 33 c-24 18 -58 39 -75 46 -31 13 -32 16 -32 73 0
72 -10 93 -51 107 -44 15 -197 13 -235 -3z m250 -32 c13 -12 16 -39 16 -124 0
-142 2 -140 -145 -140 -147 0 -145 -2 -145 136 0 58 5 114 10 125 10 17 22 19
130 19 94 0 122 -3 134 -16z m116 -208 l45 -31 -29 -5 c-53 -9 -43 -30 13 -30
50 0 52 -1 81 -47 37 -58 38 -73 3 -73 -15 0 -37 -10 -50 -22 -21 -20 -23 -29
-23 -138 0 -132 9 -155 65 -166 19 -3 35 -9 35 -13 0 -3 -13 -26 -30 -51 -28
-43 -32 -45 -85 -50 -61 -6 -78 -23 -27 -28 17 -2 32 -6 32 -10 0 -9 -84 -62
-99 -62 -7 0 -11 19 -11 50 0 41 -5 56 -25 75 -23 24 -30 25 -141 25 -107 0
-120 -2 -141 -22 -18 -17 -23 -32 -23 -75 0 -62 -7 -65 -65 -25 -37 26 -40 32
-45 82 -5 59 -22 70 -30 19 l-5 -31 -21 24 c-22 25 -54 74 -54 83 0 3 13 5 29
5 17 0 42 10 58 24 28 24 28 25 28 144 0 141 -10 162 -77 162 -48 0 -48 10 -1
80 l38 55 5 -34 c9 -59 30 -50 30 13 0 55 0 55 43 81 58 33 67 32 67 -10 0
-22 8 -43 20 -55 18 -18 33 -20 145 -20 146 0 165 9 165 80 0 46 7 46 80 -4z
m-552 -218 c8 -8 12 -51 12 -129 0 -148 -1 -149 -140 -149 -139 0 -140 1 -140
149 0 78 4 121 12 129 17 17 239 17 256 0z m886 -4 c13 -12 16 -39 16 -129 0
-147 -1 -148 -155 -143 -135 4 -135 4 -135 147 0 142 -1 141 146 141 89 0 116
-3 128 -16z m-450 -396 c12 -17 16 -48 16 -125 0 -139 -4 -143 -143 -143 -146
0 -147 1 -147 142 0 149 -1 148 146 148 105 0 114 -1 128 -22z"/>
<path d="M872 1408 c-17 -21 -72 -170 -66 -179 10 -16 24 -9 36 16 9 20 18 25
50 25 32 0 40 -4 48 -25 10 -27 28 -33 35 -12 3 7 -10 50 -28 97 -32 84 -52
105 -75 78z m37 -78 c9 -28 8 -30 -15 -30 -26 0 -27 3 -18 38 9 30 20 28 33
-8z"/>
<path d="M783 1060 c-27 -11 -30 -35 -5 -50 16 -11 16 -11 0 -6 -17 5 -18 -5
-18 -120 l0 -125 35 -15 c65 -27 216 -15 237 19 4 7 8 63 8 125 l0 114 -42 -6
-43 -6 35 12 c44 16 51 44 15 58 -32 12 -192 12 -222 0z m206 -19 c25 -16 -10
-25 -94 -25 -44 0 -86 4 -94 8 -25 16 11 26 94 26 44 0 86 -4 94 -9z m-162
-47 c-3 -3 -12 -4 -19 -1 -8 3 -5 6 6 6 11 1 17 -2 13 -5z m183 -127 c0 -95
-1 -98 -26 -107 -34 -13 -133 -13 -173 1 l-31 11 0 97 0 97 115 -1 115 0 0
-98z"/>
<path d="M880 932 c0 -14 11 -21 26 -15 8 3 11 9 8 14 -7 11 -34 12 -34 1z"/>
<path d="M884 887 c-3 -8 -4 -36 -2 -63 2 -36 7 -49 18 -49 20 0 22 116 3 122
-7 3 -16 -2 -19 -10z"/>
<path d="M392 978 c-7 -7 -12 -43 -12 -90 0 -91 11 -104 85 -93 59 9 80 34 80
97 0 42 -4 53 -28 74 -31 27 -103 34 -125 12z m98 -38 c22 -22 26 -60 10 -91
-8 -13 -21 -19 -45 -19 l-35 0 0 58 c0 32 3 62 7 65 13 13 43 7 63 -13z"/>
<path d="M1313 980 c-30 -12 -43 -41 -43 -93 0 -38 5 -49 31 -71 44 -37 105
-30 129 15 20 36 -5 48 -34 16 -14 -15 -31 -27 -39 -27 -24 0 -47 35 -47 73 0
61 48 88 85 47 19 -21 45 -27 45 -10 0 6 -11 22 -25 35 -25 26 -62 31 -102 15z"/>
<path d="M832 592 c-9 -6 -12 -33 -10 -98 l3 -89 34 -3 c90 -9 142 30 108 81
-10 16 -12 28 -5 40 5 10 7 26 3 36 -10 32 -100 53 -133 33z m93 -52 c0 -10
-12 -16 -32 -18 -28 -3 -33 0 -33 18 0 18 5 21 33 18 20 -2 32 -8 32 -18z m5
-65 c18 -21 -4 -45 -41 -45 -26 0 -29 4 -29 30 0 26 3 30 29 30 16 0 34 -7 41
-15z"/>
</g>
</svg>
